<mxfile host="app.diagrams.net" modified="2024-04-06T18:25:05.789Z" agent="Mozilla/5.0 (Macintosh; Intel Mac OS X 10_15_7) AppleWebKit/537.36 (KHTML, like Gecko) Chrome/123.0.0.0 Safari/537.36" version="24.2.2" etag="c-TSVLlGcau1TcYFxdi_" type="github">
  <diagram name="Page-1" id="VU8Ru1HuBUBBnJY4a69N">
    <mxGraphModel>
      <root>
        <mxCell id="0" />
        <mxCell id="1" parent="0" />
        <mxCell id="2" value="Start" style="whiteSpace=wrap;strokeWidth=2;" vertex="1" parent="1">
          <mxGeometry x="29" width="50" height="34" as="geometry" />
        </mxCell>
        <mxCell id="3" value="Decision" style="rhombus;strokeWidth=2;whiteSpace=wrap;" vertex="1" parent="1">
          <mxGeometry y="84" width="108" height="108" as="geometry" />
        </mxCell>
        <mxCell id="4" value="Process 1" style="whiteSpace=wrap;strokeWidth=2;" vertex="1" parent="1">
          <mxGeometry x="56" y="260" width="81" height="34" as="geometry" />
        </mxCell>
        <mxCell id="5" value="Process 2" style="whiteSpace=wrap;strokeWidth=2;" vertex="1" parent="1">
          <mxGeometry x="14" y="343" width="81" height="34" as="geometry" />
        </mxCell>
        <mxCell id="6" value="End" style="whiteSpace=wrap;strokeWidth=2;" vertex="1" parent="1">
          <mxGeometry x="33" y="427" width="41" height="34" as="geometry" />
        </mxCell>
        <mxCell id="7" value="" style="curved=1;startArrow=none;endArrow=block;exitX=0.49890625;exitY=0.9852941176470589;entryX=0.49949363425925924;entryY=-0.004629629629629629;" edge="1" parent="1" source="2" target="3">
          <mxGeometry relative="1" as="geometry">
            <Array as="points" />
          </mxGeometry>
        </mxCell>
        <mxCell id="8" value="Yes" style="curved=1;startArrow=none;endArrow=block;exitX=0.7396058744679966;exitY=0.9943576388888888;entryX=0.498046875;entryY=-0.003216911764705882;" edge="1" parent="1" source="3" target="4">
          <mxGeometry relative="1" as="geometry">
            <Array as="points">
              <mxPoint x="96" y="226" />
            </Array>
          </mxGeometry>
        </mxCell>
        <mxCell id="9" value="No" style="curved=1;startArrow=none;endArrow=block;exitX=0.25938139405052196;exitY=0.9943576388888888;entryX=0.2831598088545132;entryY=0.011488970588235295;" edge="1" parent="1" source="3" target="5">
          <mxGeometry relative="1" as="geometry">
            <Array as="points">
              <mxPoint x="12" y="226" />
              <mxPoint x="12" y="318" />
            </Array>
          </mxGeometry>
        </mxCell>
        <mxCell id="10" value="" style="curved=1;startArrow=none;endArrow=block;exitX=0.498046875;exitY=0.9820772058823529;entryX=0.7031442034911658;entryY=0.011488970588235295;" edge="1" parent="1" source="4" target="5">
          <mxGeometry relative="1" as="geometry">
            <Array as="points">
              <mxPoint x="96" y="318" />
            </Array>
          </mxGeometry>
        </mxCell>
        <mxCell id="11" value="" style="curved=1;startArrow=none;endArrow=block;exitX=0.4931520061728395;exitY=0.9967830882352942;entryX=0.5108612804878049;entryY=-0.003216911764705882;" edge="1" parent="1" source="5" target="6">
          <mxGeometry relative="1" as="geometry">
            <Array as="points" />
          </mxGeometry>
        </mxCell>
      </root>
    </mxGraphModel>
  </diagram>
</mxfile>
